<svg xmlns="http://www.w3.org/2000/svg" viewBox="0 0 143.86 32"><path d="M13 24h6l-1.2-9h-3.6z" fill="#ffffff"/><path d="M12.5 13.5h7" stroke="#ffffff" stroke-width="2" stroke-linecap="round"/><circle cx="16" cy="10.5" r="2.2" fill="#ffffff"/><path d="M9.5 9l2.4 1.2M22.5 9l-2.4 1.2M8.2 13.2l2.6-.4M23.8 13.2l-2.6-.4" stroke="#ffffff" stroke-width="1.6" stroke-linecap="round"/><path d="M10 25.5h12" stroke="#ffffff" stroke-width="2" stroke-linecap="round"/><path fill="#ffffff" d="M44.557046979865774 26.0V6.0H52.85234899328859Q56.20805369127517 6.0 57.919463087248324 7.40268456375839Q59.63087248322148 8.80536912751678 59.63087248322148 11.073825503355705Q59.63087248322148 12.791946308724832 58.59060402684564 13.926174496644295Q57.5503355704698 15.060402684563758 55.91275167785235 15.395973154362416V15.610738255033556Q57.10738255033557 15.664429530201343 58.13422818791946 16.25503355704698Q59.16107382550335 16.845637583892618 59.785234899328856 17.906040268456376Q60.40939597315436 18.966442953020135 60.40939597315436 20.416107382550337Q60.40939597315436 22.026845637583893 59.59731543624161 23.288590604026844Q58.785234899328856 24.550335570469798 57.23489932885906 25.2751677852349Q55.68456375838926 26.0 53.46979865771812 26.0ZM49.29530201342282 22.174496644295303H52.355704697986575Q53.95302013422819 22.174496644295303 54.711409395973156 21.563758389261746Q55.46979865771812 20.95302013422819 55.46979865771812 19.879194630872483Q55.46979865771812 18.711409395973156 54.65771812080537 18.01342281879195Q53.84563758389262 17.31543624161074 52.4496644295302 17.31543624161074H49.29530201342282ZM49.29530201342282 14.241610738255034H52.04697986577181Q53.241610738255034 14.241610738255034 54.02013422818792 13.651006711409396Q54.79865771812081 13.060402684563758 54.79865771812081 11.973154362416107Q54.79865771812081 10.966442953020135 54.07382550335571 10.375838926174497Q53.348993288590606 9.78523489932886 52.127516778523486 9.78523489932886H49.29530201342282Z M69.39302013422818 26.28187919463087Q65.86281879194631 26.28187919463087 63.84268456375839 24.221476510067113Q61.82255033557047 22.161073825503355 61.82255033557047 18.550335570469798Q61.82255033557047 16.241610738255034 62.72859060402685 14.496644295302014Q63.63463087248322 12.751677852348994 65.29906040268456 11.778523489932887Q66.9634899328859 10.805369127516778 69.21852348993289 10.805369127516778Q71.32590604026845 10.805369127516778 72.95677852348993 11.684563758389261Q74.58765100671141 12.563758389261745 75.52053691275168 14.275167785234899Q76.45342281879195 15.986577181208053 76.45342281879195 18.456375838926174V19.63758389261745H66.42657718120805Q66.49369127516778 21.261744966442954 67.31919463087249 22.073825503355707Q68.14469798657719 22.885906040268456 69.47355704697986 22.885906040268456Q70.41315436241611 22.885906040268456 71.09771812080537 22.48993288590604Q71.78228187919463 22.093959731543624 72.0641610738255 21.34228187919463L76.2386577181208 22.026845637583893Q75.67489932885906 23.973154362416107 73.89637583892616 25.12751677852349Q72.11785234899328 26.28187919463087 69.39302013422818 26.28187919463087ZM66.45342281879195 16.91275167785235H72.01046979865771Q71.87624161073825 15.63758389261745 71.17825503355704 14.919463087248321Q70.48026845637584 14.201342281879194 69.25879194630872 14.201342281879194Q68.02389261744966 14.201342281879194 67.30577181208054 14.93288590604027Q66.58765100671141 15.664429530201343 66.45342281879195 16.91275167785235Z M85.46389261744966 26.28187919463087Q83.11489932885905 26.28187919463087 81.42362416107382 25.308724832214764Q79.73234899328858 24.335570469798657 78.82630872483222 22.597315436241608Q77.92026845637584 20.859060402684563 77.92026845637584 18.550335570469798Q77.92026845637584 16.241610738255034 78.82630872483222 14.496644295302014Q79.73234899328858 12.751677852348994 81.42362416107382 11.778523489932887Q83.11489932885905 10.805369127516778 85.46389261744966 10.805369127516778Q88.33637583892617 10.805369127516778 90.18201342281878 12.241610738255034Q92.02765100671141 13.677852348993289 92.37664429530201 16.13422818791946L88.0544966442953 16.859060402684563Q87.82630872483222 15.677852348993289 87.18872483221477 15.033557046979865Q86.55114093959732 14.389261744966444 85.51758389261745 14.389261744966444Q84.17530201342282 14.389261744966444 83.43704697986577 15.483221476510067Q82.69879194630872 16.57718120805369 82.69879194630872 18.523489932885905Q82.69879194630872 20.456375838926174 83.43704697986577 21.57718120805369Q84.17530201342282 22.697986577181208 85.51758389261745 22.697986577181208Q86.55114093959732 22.697986577181208 87.20214765100671 22.026845637583893Q87.8531543624161 21.355704697986578 88.06791946308725 20.14765100671141L92.39006711409395 20.845637583892618Q92.04107382550336 23.369127516778523 90.20214765100671 24.825503355704697Q88.36322147651006 26.28187919463087 85.46389261744966 26.28187919463087Z M94.44751677852348 26.0V6.0H99.13208053691274V16.416107382550337H99.34684563758388L103.64214765100671 10.993288590604028H108.97100671140939L103.6153020134228 17.543624161073826L109.18577181208053 26.0H103.77637583892617L100.12536912751678 20.268456375838927L99.13208053691274 21.449664429530202V26.0Z M117.29691275167784 26.28187919463087Q114.94791946308723 26.28187919463087 113.256644295302 25.308724832214764Q111.56536912751676 24.335570469798657 110.6593288590604 22.597315436241608Q109.75328859060401 20.859060402684563 109.75328859060401 18.550335570469798Q109.75328859060401 16.241610738255034 110.6593288590604 14.496644295302014Q111.56536912751676 12.751677852348994 113.256644295302 11.778523489932887Q114.94791946308723 10.805369127516778 117.29691275167784 10.805369127516778Q119.64590604026844 10.805369127516778 121.3304697986577 11.778523489932887Q123.01503355704696 12.751677852348994 123.92107382550334 14.496644295302014Q124.82711409395972 16.241610738255034 124.82711409395972 18.550335570469798Q124.82711409395972 20.859060402684563 123.92107382550334 22.597315436241608Q123.01503355704696 24.335570469798657 121.3304697986577 25.308724832214764Q119.64590604026844 26.28187919463087 117.29691275167784 26.28187919463087ZM117.29691275167784 22.697986577181208Q118.63919463087247 22.697986577181208 119.35060402684562 21.550335570469798Q120.06201342281878 20.40268456375839 120.06201342281878 18.523489932885905Q120.06201342281878 16.644295302013425 119.35060402684562 15.516778523489934Q118.63919463087247 14.389261744966444 117.29691275167784 14.389261744966444Q115.95463087248321 14.389261744966444 115.24322147651006 15.516778523489934Q114.5318120805369 16.644295302013425 114.5318120805369 18.523489932885905Q114.5318120805369 20.40268456375839 115.24322147651006 21.550335570469798Q115.95463087248321 22.697986577181208 117.29691275167784 22.697986577181208Z M131.62281879194632 17.436241610738257V26.0H126.93825503355704V10.993288590604028H131.34093959731544L131.42147651006712 14.228187919463087Q132.01208053691275 12.671140939597315 133.1530201342282 11.738255033557046Q134.29395973154362 10.805369127516778 136.11946308724833 10.805369127516778Q138.4684563758389 10.805369127516778 139.89127516778524 12.348993288590604Q141.31409395973154 13.89261744966443 141.31409395973154 16.442953020134226V26.0H136.62953020134228V17.355704697986578Q136.62953020134228 16.093959731543624 135.98523489932887 15.375838926174497Q135.34093959731544 14.65771812080537 134.18657718120807 14.65771812080537Q133.0456375838926 14.65771812080537 132.33422818791945 15.389261744966444Q131.62281879194632 16.120805369127517 131.62281879194632 17.436241610738257Z"/></svg>
